<svg width="67" height="68" viewBox="0 0 67 68" fill="none" xmlns="http://www.w3.org/2000/svg">
<g clip-path="url(#clip0_0_1062)">
<path d="M33.324 67.3501C51.695 67.3501 66.5877 52.4574 66.5877 34.0863C66.5877 15.7152 51.695 0.82251 33.324 0.82251C14.9529 0.82251 0.0601807 15.7152 0.0601807 34.0863C0.0601807 52.4574 14.9529 67.3501 33.324 67.3501Z" fill="#EB7A65"/>
<path fill-rule="evenodd" clip-rule="evenodd" d="M47.0321 41.1571L51.4767 22.8195H48.7299H45.2957H42.5875L47.0321 41.1571Z" fill="white"/>
<path fill-rule="evenodd" clip-rule="evenodd" d="M31.6889 22.8195H28.942L35.1231 48.3214H37.8699H41.3041H44.051L37.8699 22.8195H35.1231H31.6889Z" fill="white"/>
<path fill-rule="evenodd" clip-rule="evenodd" d="M24.2243 22.8197H18.0432L18.0434 22.8202H15.2964L21.4775 48.3221H27.6586L27.6584 48.3216H30.4053L24.2243 22.8197Z" fill="white"/>
</g>
<defs>
<clipPath id="clip0_0_1062">
<rect width="66.5276" height="67.3389" fill="white" transform="translate(0.0593872 0.230499)"/>
</clipPath>
</defs>
</svg>
