<svg width="21" height="21" viewBox="0 0 21 21" fill="none" xmlns="http://www.w3.org/2000/svg">
<g clip-path="url(#clip0_0_542)">
<path d="M10.6875 20.7812C5.16465 20.7812 0.6875 16.3041 0.6875 10.7812C0.6875 5.2584 5.16465 0.78125 10.6875 0.78125C16.2103 0.78125 20.6875 5.2584 20.6875 10.7812C20.6875 16.3041 16.2103 20.7812 10.6875 20.7812Z" fill="black"/>
<path d="M16.3953 10.0741C16.7858 10.4646 16.7858 11.0978 16.3953 11.4883L10.0313 17.8523C9.64077 18.2428 9.00761 18.2428 8.61708 17.8523C8.22656 17.4617 8.22656 16.8286 8.61708 16.4381L14.2739 10.7812L8.61708 5.12435C8.22656 4.73382 8.22656 4.10066 8.61708 3.71013C9.00761 3.31961 9.64077 3.31961 10.0313 3.71013L16.3953 10.0741ZM5.27148 9.7812H15.6882V11.7812H5.27148V9.7812Z" fill="white"/>
</g>
<defs>
<clipPath id="clip0_0_542">
<rect width="20" height="20" fill="white" transform="translate(0.6875 0.78125)"/>
</clipPath>
</defs>
</svg>
